# xmcd
#
# Track frame offsets: 
#        150
#        15416
#        33872
#        54502
#        70040
#        87715
#        105583
#        122518
#        138559
#        151796
#        167395
#        184139
#        198315
#
# Disc length: 2702 seconds
#
# Revision: 0
# Processed by: cddbd v1.5.2PL0 Copyright (c) Steve Scherf et al.
# Submitted via: ExactAudioCopy v0.99pb4
#
DISCID=9e0a8c0d
DTITLE=Nadiya - Electron Libre
DYEAR=2008
DGENRE=Pop
TTITLE0=J'Irai Jusque La (Feat. Stephen Simmonds)
TTITLE1=Voler Tes Reves (Feat. Enrique Iglesias)
TTITLE2=Tired Of Being Sorry (Feat. Kelly Rowland)
TTITLE3=No Future In The Past
TTITLE4=Miss You
TTITLE5=Orpheline De L'Amour
TTITLE6=Ma Resilience
TTITLE7=A Mon Pere
TTITLE8=Il Suffit D'Un Mot
TTITLE9=La Lettre
TTITLE10=Mon Kiss A Oxygene
TTITLE11=Jamais
TTITLE12=Solitaire
EXTD=
EXTT0=
EXTT1=
EXTT2=
EXTT3=
EXTT4=
EXTT5=
EXTT6=
EXTT7=
EXTT8=
EXTT9=
EXTT10=
EXTT11=
EXTT12=
PLAYORDER=
